<svg width="48" height="48" viewBox="0 0 48 48" fill="none" xmlns="http://www.w3.org/2000/svg">
<rect width="48" height="48" rx="24" fill="#AC0000"/>
<path d="M21 23.4999L23 25.4999L27.5 20.9999M32 23.9999C32 28.9083 26.646 32.4783 24.698 33.6147C24.4766 33.7439 24.3659 33.8085 24.2097 33.842C24.0884 33.868 23.9116 33.868 23.7903 33.842C23.6341 33.8085 23.5234 33.7439 23.302 33.6147C21.354 32.4783 16 28.9083 16 23.9999V19.2175C16 18.418 16 18.0182 16.1308 17.6746C16.2463 17.371 16.434 17.1001 16.6777 16.8854C16.9535 16.6423 17.3278 16.5019 18.0764 16.2212L23.4382 14.2105C23.6461 14.1326 23.75 14.0936 23.857 14.0782C23.9518 14.0644 24.0482 14.0644 24.143 14.0782C24.25 14.0936 24.3539 14.1326 24.5618 14.2105L29.9236 16.2212C30.6722 16.5019 31.0465 16.6423 31.3223 16.8854C31.566 17.1001 31.7537 17.371 31.8692 17.6746C32 18.0182 32 18.418 32 19.2175V23.9999Z" stroke="white" stroke-width="2" stroke-linecap="round" stroke-linejoin="round"/>
</svg>
