<svg width="612" height="724" viewBox="0 0 612 724" fill="none" xmlns="http://www.w3.org/2000/svg">
<path d="M0 24C0 10.7452 10.7452 0 24 0H200C213.255 0 224 10.7452 224 24V99.5C224 112.755 234.745 123.5 248 123.5H588C601.255 123.5 612 134.245 612 147.5V319C612 332.255 601.255 343 588 343H24C10.7452 343 0 332.255 0 319V259.268V24Z" fill="#F5F5F5"/>
<rect x="231" width="381" height="115" rx="24" fill="#F5F5F5"/>
<path d="M0 376C0 362.745 10.7452 352 24 352H175.5C188.755 352 199.5 362.745 199.5 376V576.5C199.5 589.755 210.245 600.5 223.5 600.5H276C289.255 600.5 300 611.245 300 624.5V699C300 712.255 289.255 723 276 723H24C10.7452 723 0 712.255 0 699V632.432V376Z" fill="#F5F5F5"/>
<path d="M612 700C612 713.255 601.255 724 588 724H412.5H336C322.745 724 312 713.255 312 700V605.5C312 592.245 301.255 581.5 288 581.5H238C224.745 581.5 214 570.755 214 557.5V377C214 363.745 224.745 353 238 353H462H588C601.255 353 612 363.745 612 377V443.568V700Z" fill="#F5F5F5"/>
</svg>
