<svg width="338" height="478" viewBox="0 0 338 478" fill="none" xmlns="http://www.w3.org/2000/svg">
<g opacity="0.1">
<path d="M198.579 8.80892C228.661 19.2173 255.703 59.1986 265.463 77.8882H179.469C175.873 74.997 164.736 68.5331 148.954 65.8071C129.228 62.3996 99.6388 73.5514 86.077 90.2791C65.0353 116.233 70.1313 156.593 77.1385 173.298C90.3921 204.895 128.92 212.329 146.18 209.851C157.176 208.273 172.996 200.558 179.469 195.602H252.209L287.347 173.298H141.249V146.658L347.45 148.516C351.56 145.935 367.176 139.657 394.3 133.957C421.424 128.257 467.863 124.457 488 124.354V349.559C468.274 352.656 447.623 354.825 408.787 377.128C366.108 401.638 355.035 415.751 333.272 444.039C310.155 474.087 294.744 521.482 287.347 546.884H62.0355C62.0355 547.813 61.2408 543.46 62.0355 523.651C63.5766 485.239 79.9125 425.453 86.077 409.035C103.035 363.87 142.482 301.647 162.825 277.072C161.694 277.485 153.331 278.063 128.92 277.072C98.4059 275.833 53.4054 256.937 29.0558 225.34C4.70612 193.743 -1.76959 146.967 0.387971 111.653C2.54553 76.3392 38.547 35.4893 69.7411 15.9337C100.872 -3.58205 160.975 -4.20152 198.579 8.80892Z" fill="#AC0000"/>
<path d="M141.249 127.142V97.7136H370.875V127.142H141.249Z" fill="#AC0000"/>
<path d="M340.361 63.3288C340.361 74.6202 331.253 83.7738 320.018 83.7738C308.783 83.7738 299.676 74.6202 299.676 63.3288C299.676 52.0373 308.783 42.8838 320.018 42.8838C331.253 42.8838 340.361 52.0373 340.361 63.3288Z" fill="#AC0000"/>
</g>
</svg>
