<svg width="547" height="348" viewBox="0 0 547 348" fill="none" xmlns="http://www.w3.org/2000/svg">
<g opacity="0.1">
<path d="M229.505 10.1617C264.272 22.1684 295.525 68.2894 306.806 89.849H207.419C203.263 86.5139 190.391 79.0573 172.152 75.9127C149.354 71.982 115.156 84.8463 99.4824 104.143C75.1638 134.082 81.0534 180.64 89.1518 199.911C104.47 236.36 148.998 244.936 168.946 242.077C181.654 240.256 199.938 231.357 207.419 225.639H291.488L332.097 199.911H163.247V169.179L401.561 171.323C406.311 168.345 424.36 161.103 455.708 154.528C487.055 147.953 540.727 143.57 564 143.45V403.238C541.202 406.812 517.335 409.313 472.45 435.042C423.125 463.316 410.327 479.595 385.175 512.228C358.458 546.89 340.647 601.564 332.097 630.866H71.6968C71.6968 631.938 70.7783 626.916 71.6968 604.065C73.4779 559.755 92.3579 490.787 99.4824 471.848C119.081 419.748 164.672 347.97 188.182 319.62C186.876 320.097 177.211 320.764 148.998 319.62C113.731 318.191 61.7226 296.393 33.5808 259.944C5.43904 223.495 -2.04518 169.536 0.448393 128.799C2.94197 88.0623 44.5502 40.9392 80.6024 18.3806C116.581 -4.13213 186.045 -4.84673 229.505 10.1617Z" fill="#AC0000"/>
<path d="M163.247 146.667V112.719H428.634V146.667H163.247Z" fill="#AC0000"/>
<path d="M393.368 73.0539C393.368 86.0793 382.842 96.6385 369.857 96.6385C356.873 96.6385 346.346 86.0793 346.346 73.0539C346.346 60.0284 356.873 49.4693 369.857 49.4693C382.842 49.4693 393.368 60.0284 393.368 73.0539Z" fill="#AC0000"/>
</g>
</svg>
