<svg width="48" height="48" viewBox="0 0 48 48" fill="none" xmlns="http://www.w3.org/2000/svg">
<rect width="48" height="48" rx="24" fill="#AC0000"/>
<path d="M24 24L19.7271 20.4393C19.0923 19.9102 18.7748 19.6457 18.5466 19.3214C18.3444 19.0341 18.1943 18.7135 18.103 18.3743C18 17.9914 18 17.5782 18 16.7518V14M24 24L28.2729 20.4393C28.9077 19.9102 29.2252 19.6457 29.4534 19.3214C29.6556 19.0341 29.8057 18.7135 29.897 18.3743C30 17.9914 30 17.5782 30 16.7518V14M24 24L19.7271 27.5607C19.0923 28.0898 18.7748 28.3543 18.5466 28.6786C18.3444 28.9659 18.1943 29.2865 18.103 29.6257C18 30.0086 18 30.4218 18 31.2482V34M24 24L28.2729 27.5607C28.9077 28.0898 29.2252 28.3543 29.4534 28.6786C29.6556 28.9659 29.8057 29.2865 29.897 29.6257C30 30.0086 30 30.4218 30 31.2482V34M16 14H32M16 34H32" stroke="white" stroke-width="2" stroke-linecap="round" stroke-linejoin="round"/>
</svg>
