<svg width="48" height="48" viewBox="0 0 48 48" fill="none" xmlns="http://www.w3.org/2000/svg">
<rect width="48" height="48" rx="24" fill="#AC0000"/>
<path d="M24 34C29.5228 34 34 29.5228 34 24C34 18.4772 29.5228 14 24 14C18.4772 14 14 18.4772 14 24C14 29.5228 18.4772 34 24 34Z" stroke="white" stroke-width="2" stroke-linecap="round" stroke-linejoin="round"/>
<path d="M25.8333 19.3C25.8333 19.02 25.8333 18.88 25.7788 18.773C25.7309 18.6789 25.6544 18.6024 25.5603 18.5545C25.4534 18.5 25.3134 18.5 25.0333 18.5H22.9667C22.6866 18.5 22.5466 18.5 22.4397 18.5545C22.3456 18.6024 22.2691 18.6789 22.2212 18.773C22.1667 18.88 22.1667 19.02 22.1667 19.3V21.3667C22.1667 21.6467 22.1667 21.7867 22.1122 21.8937C22.0642 21.9877 21.9877 22.0642 21.8937 22.1122C21.7867 22.1667 21.6467 22.1667 21.3667 22.1667H19.3C19.02 22.1667 18.88 22.1667 18.773 22.2212C18.6789 22.2691 18.6024 22.3456 18.5545 22.4397C18.5 22.5466 18.5 22.6866 18.5 22.9667V25.0333C18.5 25.3134 18.5 25.4534 18.5545 25.5603C18.6024 25.6544 18.6789 25.7309 18.773 25.7788C18.88 25.8333 19.02 25.8333 19.3 25.8333H21.3667C21.6467 25.8333 21.7867 25.8333 21.8937 25.8878C21.9877 25.9358 22.0642 26.0123 22.1122 26.1063C22.1667 26.2133 22.1667 26.3533 22.1667 26.6333V28.7C22.1667 28.98 22.1667 29.12 22.2212 29.227C22.2691 29.3211 22.3456 29.3976 22.4397 29.4455C22.5466 29.5 22.6866 29.5 22.9667 29.5H25.0333C25.3134 29.5 25.4534 29.5 25.5603 29.4455C25.6544 29.3976 25.7309 29.3211 25.7788 29.227C25.8333 29.12 25.8333 28.98 25.8333 28.7V26.6333C25.8333 26.3533 25.8333 26.2133 25.8878 26.1063C25.9358 26.0123 26.0123 25.9358 26.1063 25.8878C26.2133 25.8333 26.3533 25.8333 26.6333 25.8333H28.7C28.98 25.8333 29.12 25.8333 29.227 25.7788C29.3211 25.7309 29.3976 25.6544 29.4455 25.5603C29.5 25.4534 29.5 25.3134 29.5 25.0333V22.9667C29.5 22.6866 29.5 22.5466 29.4455 22.4397C29.3976 22.3456 29.3211 22.2691 29.227 22.2212C29.12 22.1667 28.98 22.1667 28.7 22.1667H26.6333C26.3533 22.1667 26.2133 22.1667 26.1063 22.1122C26.0123 22.0642 25.9358 21.9877 25.8878 21.8937C25.8333 21.7867 25.8333 21.6467 25.8333 21.3667V19.3Z" stroke="white" stroke-width="2" stroke-linecap="round" stroke-linejoin="round"/>
</svg>
