<svg width="48" height="48" viewBox="0 0 48 48" fill="none" xmlns="http://www.w3.org/2000/svg">
<rect width="48" height="48" rx="24" fill="#AC0000"/>
<path d="M16.5 34V29M16.5 19V14M14 16.5H19M14 31.5H19M25 15L23.2658 19.5089C22.9838 20.2421 22.8428 20.6087 22.6235 20.9171C22.4292 21.1904 22.1904 21.4292 21.9171 21.6235C21.6087 21.8428 21.2421 21.9838 20.5089 22.2658L16 24L20.5089 25.7342C21.2421 26.0162 21.6087 26.1572 21.9171 26.3765C22.1904 26.5708 22.4292 26.8096 22.6235 27.0829C22.8428 27.3913 22.9838 27.7579 23.2658 28.4911L25 33L26.7342 28.4911C27.0162 27.7579 27.1572 27.3913 27.3765 27.0829C27.5708 26.8096 27.8096 26.5708 28.0829 26.3765C28.3913 26.1572 28.7579 26.0162 29.4911 25.7342L34 24L29.4911 22.2658C28.7579 21.9838 28.3913 21.8428 28.0829 21.6235C27.8096 21.4292 27.5708 21.1904 27.3765 20.9171C27.1572 20.6087 27.0162 20.2421 26.7342 19.5089L25 15Z" stroke="white" stroke-width="2" stroke-linecap="round" stroke-linejoin="round"/>
</svg>
