<svg width="239" height="234" viewBox="0 0 239 234" fill="none" xmlns="http://www.w3.org/2000/svg">
<g opacity="0.1">
<path d="M99.6962 4.42862C114.799 9.66133 128.375 29.7616 133.275 39.1577H90.1021C88.2967 37.7041 82.7053 34.4545 74.7825 33.084C64.8789 31.3709 50.0236 36.9774 43.2149 45.3871C32.6509 58.4351 35.2094 78.7259 38.7273 87.1243C45.3813 103.009 64.7242 106.747 73.3898 105.501C78.91 104.707 86.8524 100.829 90.1021 98.3372H126.621L144.262 87.1243H70.9139V73.731L174.437 74.6654C176.5 73.3676 184.341 70.2114 197.958 67.3458C211.575 64.4803 234.89 62.5699 245 62.518V175.738C235.096 177.295 224.729 178.385 205.231 189.598C183.804 201.921 178.245 209.015 167.319 223.237C155.713 238.344 147.976 262.171 144.262 274.941H31.1449C31.1449 275.409 30.7459 273.22 31.1449 263.261C31.9186 243.95 40.12 213.893 43.2149 205.639C51.7287 182.933 71.5329 151.651 81.7459 139.296C81.1785 139.503 76.9798 139.794 64.7242 139.296C49.4046 138.673 26.8121 129.173 14.5874 113.288C2.36271 97.4028 -0.888422 73.8867 0.19478 56.1328C1.27798 38.379 19.3525 17.842 35.0135 8.01054C50.6425 -1.80085 80.8175 -2.11228 99.6962 4.42862Z" fill="#AC0000"/>
<path d="M70.9139 63.9196V49.1248H186.198V63.9196H70.9139Z" fill="#AC0000"/>
<path d="M170.878 31.8381C170.878 37.5147 166.305 42.1166 160.665 42.1166C155.024 42.1166 150.452 37.5147 150.452 31.8381C150.452 26.1614 155.024 21.5595 160.665 21.5595C166.305 21.5595 170.878 26.1614 170.878 31.8381Z" fill="#AC0000"/>
</g>
</svg>
